<svg xmlns="http://www.w3.org/2000/svg" width="32" height="29" viewBox="0 0 32 29"><g><g><path fill="#e8e8e8" d="M26.401 29a2.477 2.477 0 1 0-.2 0zm-19.65-2.68a2.68 2.68 0 1 0 5.357 0 2.68 2.68 0 0 0-5.355 0zm18.66-5.634a1.185 1.185 0 0 0 1.084-.709L31.9 7.565a1.191 1.191 0 0 0-.526-1.513 1.178 1.178 0 0 0-.56-.142H14.401a1.183 1.183 0 1 0 0 2.365h14.6l-4.383 10.048H11.44L6.607.868A1.183 1.183 0 0 0 5.463 0H1.182a1.182 1.182 0 1 0 0 2.364h3.393l4.833 17.455a1.185 1.185 0 0 0 1.145.867z"/></g></g></svg>