<svg xmlns="http://www.w3.org/2000/svg" width="29" height="29" viewBox="0 0 29 29"><g><g><path fill="#e8e8e8" d="M6.344 9.974A11.159 11.159 0 0 1 8.666 3 7.451 7.451 0 0 1 14.5 0c4.5 0 8.156 4.472 8.156 9.968 0 5.496-3.656 9.969-8.156 9.969s-8.156-4.472-8.156-9.963zm1.811-.005c.001 4.496 2.847 8.156 6.345 8.156 3.498 0 6.344-3.659 6.344-8.156 0-4.497-2.844-8.156-6.344-8.156-3.5 0-6.346 3.66-6.345 8.156zm18.453 10.548A8.166 8.166 0 0 1 29 26.28 2.722 2.722 0 0 1 26.282 29H2.719A2.722 2.722 0 0 1 0 26.281a8.165 8.165 0 0 1 8.158-8.155.906.906 0 0 1 0 1.812 6.352 6.352 0 0 0-6.344 6.344.908.908 0 0 0 .906.906h23.562a.908.908 0 0 0 .906-.906 6.351 6.351 0 0 0-6.344-6.344.907.907 0 0 1 0-1.813 8.166 8.166 0 0 1 5.764 2.392z"/></g></g></svg>